<svg width="22" height="15" viewBox="0 0 22 15" fill="none" xmlns="http://www.w3.org/2000/svg">
<path d="M13.3655 6.42562C13.4311 6.80422 13.478 7.18281 13.478 7.67391C13.478 11.9611 10.8424 15 6.875 15C3.07642 15 0 11.6439 0 7.5C0 3.35605 3.07642 0 6.875 0C8.73211 0 10.2797 0.73668 11.4802 1.96453L9.61372 3.91883C9.10723 3.38676 8.21623 2.76262 6.875 2.76262C4.53019 2.76262 2.6168 4.88062 2.6168 7.5C2.6168 10.1194 4.53019 12.2374 6.875 12.2374C9.59496 12.2374 10.6173 10.0989 10.7767 9.00406H6.875V6.42559H13.3655V6.42562ZM20.0044 6.67707V4.5H17.9991V6.67707H16.0035V8.86461H17.9991V11.0417H20.0044V8.86461H22V6.67707H20.0044Z" fill="white"/>
</svg>
