<svg width="22" height="16" viewBox="0 0 22 16" fill="none" xmlns="http://www.w3.org/2000/svg">
<path d="M19.7386 3.98749C19.7526 4.16248 19.7526 4.33751 19.7526 4.5125C19.7526 9.84997 15.2158 16 6.92388 16C4.36929 16 1.99621 15.3375 0 14.1875C0.362958 14.225 0.711909 14.2375 1.08883 14.2375C3.19667 14.2375 5.13706 13.6 6.68656 12.5125C4.70432 12.475 3.04314 11.3125 2.4708 9.7125C2.75001 9.74997 3.02918 9.77498 3.32236 9.77498C3.72717 9.77498 4.13202 9.72496 4.5089 9.63751C2.44291 9.26247 0.893367 7.63749 0.893367 5.67499V5.62501C1.4936 5.92501 2.19163 6.11251 2.93143 6.13748C1.71695 5.41247 0.921297 4.17498 0.921297 2.77497C0.921297 2.02499 1.14461 1.33749 1.53549 0.737481C3.75505 3.18748 7.09138 4.78745 10.8325 4.96248C10.7627 4.66248 10.7208 4.35001 10.7208 4.03751C10.7208 1.81248 12.731 0 15.2297 0C16.5279 0 17.7005 0.487499 18.5241 1.275C19.5431 1.10001 20.5203 0.762491 21.3858 0.300002C21.0507 1.23752 20.3388 2.02502 19.4036 2.52499C20.3109 2.43753 21.1904 2.21248 22 1.90001C21.3859 2.69998 20.6181 3.41245 19.7386 3.98749Z" fill="white"/>
</svg>
